<svg xmlns="http://www.w3.org/2000/svg" xmlns:xlink="http://www.w3.org/1999/xlink" viewBox="0 0 1350.91 906.15"><defs><style>.cls-1{fill:#c7b299;opacity:0.4;}.cls-1,.cls-16,.cls-5{isolation:isolate;}.cls-2{fill:#0ab0a9;}.cls-15,.cls-3{fill:#fff;}.cls-19,.cls-3,.cls-4{stroke:#000;}.cls-3,.cls-4{stroke-miterlimit:10;stroke-width:2.31px;}.cls-16,.cls-5,.cls-7{fill:#365cf6;}.cls-5{opacity:0.3;}.cls-6{fill:#85d800;}.cls-8{fill:#d84b25;}.cls-9{fill:#f9b797;}.cls-10{fill:#fcfcfc;}.cls-11{fill:#8b8f93;}.cls-12{fill:#4c1765;}.cls-13{fill:#1c0224;}.cls-14{fill:#fbb2a5;}.cls-16{opacity:0.5;}.cls-17{fill:url(#linear-gradient);}.cls-18{fill:#666;}.cls-19{fill:none;stroke-linecap:round;stroke-linejoin:round;stroke-width:0.58px;}.cls-20{fill:url(#linear-gradient-2);}.cls-21{fill:#1d2346;}.cls-22{fill:#d70669;}.cls-23{fill:url(#linear-gradient-3);}.cls-24{fill:url(#linear-gradient-4);}.cls-25{fill:url(#linear-gradient-5);}</style><linearGradient id="linear-gradient" x1="1068.58" y1="613.83" x2="1068.58" y2="569.87" gradientTransform="matrix(1, 0, 0, -1, -720.26, 956.31)" gradientUnits="userSpaceOnUse"><stop offset="0" stop-color="#4ec3fa"/><stop offset="1" stop-color="#0a8afc"/></linearGradient><linearGradient id="linear-gradient-2" x1="534.3" y1="430.97" x2="534.3" y2="413.47" gradientTransform="matrix(1, 0, 0, -1, 443.67, 956.31)" gradientUnits="userSpaceOnUse"><stop offset="0" stop-color="#f9ccad"/><stop offset="1" stop-color="#f9b694"/></linearGradient><linearGradient id="linear-gradient-3" x1="543.73" y1="522.42" x2="543.73" y2="493.69" gradientTransform="matrix(1, 0, 0, -1, 443.67, 956.31)" xlink:href="#linear-gradient"/><linearGradient id="linear-gradient-4" x1="448.16" y1="429.55" x2="468.26" y2="420.09" xlink:href="#linear-gradient-2"/><linearGradient id="linear-gradient-5" x1="2166.87" y1="444.79" x2="2156.51" y2="409.47" gradientTransform="translate(3096.73 956.31) rotate(180)" xlink:href="#linear-gradient-2"/></defs><g id="Layer_2" data-name="Layer 2"><g id="Layer_1-2" data-name="Layer 1"><g id="Layer_5" data-name="Layer 5"><path class="cls-1" d="M86.86,883.73H1236.59a304.49,304.49,0,0,0,114.32-238.09c0-149.83-108-274.42-250.39-300.2q.84-10.38.84-21c0-144.12-116.83-261-260.95-261-105.88,0-197,63.06-237.94,153.68a218.22,218.22,0,0,0-118.66,6,225.13,225.13,0,0,0-156.53-63c-124.73,0-225.84,101.11-225.84,225.84a225,225,0,0,0,24.18,101.75C9,551.05-34.15,696.89,29.16,813.47a240.4,240.4,0,0,0,57.7,70.23Z"/></g><g id="Layer_1-3" data-name="Layer 1"><path class="cls-2" d="M865.55,881.76s-45-45.66-32.25-56c15.1-12.25,39.6,40.57,39.6,40.57s-15.92-41.58.2-44.13c12.91-2,18.17,42.07,18.17,42.07s2.45-25.57,13.48-21.77c7.32,2.55-.82,21.77-.82,21.77S920.67,838.7,930.26,848c6.8,6.6-15.13,33.79-15.13,33.79Z"/><rect class="cls-3" x="290.23" y="1.15" width="760.83" height="535.87" rx="39"/><path class="cls-4" d="M1051.06,40.15V60.64H290.22V40.15a39,39,0,0,1,39-39h682.84a39,39,0,0,1,39,39Z"/><rect class="cls-5" x="474.52" y="89.14" width="541.85" height="418.96" rx="23.7"/><circle class="cls-5" cx="384.63" cy="157.4" r="68.18"/><path class="cls-6" d="M906.94,31.5a14,14,0,1,1-14-14A14,14,0,0,1,906.94,31.5Z"/><circle class="cls-7" cx="950.67" cy="31.5" r="14.04"/><circle class="cls-8" cx="1008.43" cy="31.5" r="14.04"/><g id="Layer_4" data-name="Layer 4"><path class="cls-9" d="M649.77,240.4c-.64.41-1.28.79-1.94,1.17a37.16,37.16,0,0,1-35.27.66,46.41,46.41,0,0,1-5.17-3c-.12,8.64-1.69,18.57-7.37,24.56-3.46,3.66.16,9.86,7.34,14.35l44.85-1.44a39.28,39.28,0,0,0,9.09-6.22S650.28,261.82,649.77,240.4Z"/><path class="cls-9" d="M695.81,176.21c-1.94-6.7-9.3-3.28-9.3-3.28,2.12-23-1.29-87.8-64.85-83.22s-52.84,83.44-52.84,83.44c-8.15-4-12.91,4.84-7.14,19.54,5.26,13.42,16.91,11.06,16.91,11.06,7.1,16.35,18.68,28.68,28.8,35.43a46.41,46.41,0,0,0,5.17,3,37.16,37.16,0,0,0,35.27-.66c.66-.38,1.3-.77,1.94-1.17,20.65-13,29.44-37.11,29.44-37.11C693.81,207.06,697.75,182.93,695.81,176.21Z"/><path class="cls-9" d="M692.49,177.06c.38.43-1.49-2.27-3.54-.88s-2.92,6.42-1.71,8.1,2.69,5.39.09,7.07-1.85,2.51-1.85,2.51a7,7,0,0,1,3-2.14c1.91-.65,1.92-4,0-6.61S689.28,173.35,692.49,177.06Z"/><path class="cls-9" d="M563.28,177.44c-.33.47,1.24-2.42,3.42-1.26s3.6,6.07,2.58,7.86-2.1,5.66.67,7,2.11,2.3,2.11,2.3a6.91,6.91,0,0,0-3.23-1.8c-2-.44-2.33-3.76-.71-6.57S566.16,173.38,563.28,177.44Z"/><path d="M673.15,103.42a24.08,24.08,0,0,0-8.78-5,15.23,15.23,0,0,0-4.59-.82,30.65,30.65,0,0,0-2-2.53c-11.22-13-38.66-8.5-53.59-3.45h0s-34.74,2.21-45.08,54.12.74,133.84.74,133.84l47.48-1.52c-7.18-4.49-10.8-10.69-7.34-14.35,5.68-6,7.25-15.92,7.37-24.56a76.1,76.1,0,0,1-15.92-14.59c-10.81-24.53-1.26-54-1.26-54,5.34-11.93,14.66-21,30.39-22.21,27.08-2.06,34.43-11,36.26-16.93,1.23,4.8,4.24,12.11,11.55,16.13,7.55,4.14,8.65,16.78,8.51,25a51.74,51.74,0,0,0-.47,7.35V180h0c.06,6,1.23,10.71,2.82,10.71s3.17-6,4.16-10.6c.28-1.18,1.74-6.34,6.06-8,2.27-.27,5.2.22,6.32,4.09,1.94,6.71-2,30.84-16.6,27.07,0,0-8.79,24.12-29.44,37.12.47,21.42,11.53,30,11.53,30a39.28,39.28,0,0,1-9.09,6.22L694,275.24s4.84-56,5.19-103.15C699.46,137.6,686.13,113.75,673.15,103.42ZM561.68,192.69c-5.77-14.71-1-23.54,7.14-19.54h0s5.94,4.9,6,19.11h0c0,3.72,0,7.6.07,11.55C571.07,203.43,565.06,201.31,561.68,192.69Z"/><path class="cls-10" d="M556.28,323.31s8.59,17.07,9.07,27.3-.86,21.78,9.19,44c9.24,20.46,3.4,51.6,3.4,51.6l54.28,3.17-.58-166.17S557.2,308.7,556.28,323.31Z"/><path class="cls-10" d="M703.64,323.31s-8.59,17.07-9.07,27.3.86,21.78-9.18,44c-9.25,20.46-3.41,51.6-3.41,51.6l-54.28,3.17.58-166.17S702.67,308.7,703.64,323.31Z"/><path class="cls-10" d="M603.28,259.15s-32.15,13.14-54.42,20.43-33.59,54-37.24,63.53-19,98.94-19,111,23.73,16.42,79.59,15,59.88-4,59.88-4-8.4-9.86-4.75-30.3c0,0-84-14.49-86.16-15.58S565.28,349,566,346.09s55.53-45.53,69.36-65.53C635.33,280.54,609.1,276.73,603.28,259.15Z"/><path class="cls-10" d="M654.13,256.15s32.16,13.14,54.43,20.45,30.22,64,32.41,74c2.74,12.41-28.37,70.1-29,67.73-1.28-5-23.36-71.56-24.09-74.47s-52-46.34-65.88-66.34C622,277.55,648.28,273.74,654.13,256.15Z"/><path class="cls-11" d="M605.63,253.06l-8.26,8.49s7.48,18.06,28.59,18.06c21.6,0,29.86-15,31.85-21.93l-7.06-7.82s-6.27,15.31-21.81,15.7C613.2,266,605.63,253.06,605.63,253.06Z"/><path class="cls-11" d="M505.91,420.9s19.53-4.84,35.23-1.7l.79-4.76S516.68,416,505.91,420.9Z"/><path class="cls-12" d="M627.76,433.77s-3.27,21.77,5.4,32.08l-15.35,1.46s-3.07-7.07-2.43-20.49.42-14.42.42-14.42Z"/><polygon class="cls-13" points="579.69 426.45 615.83 433.2 615.8 432.4 579.71 423.82 579.69 426.45"/><path class="cls-13" d="M604.91,402.89s17.28-7.82,25.56-8.28,35.2,8.28,35.2,8.28S634.6,394.15,604.91,402.89Z"/><path class="cls-11" d="M565.28,350.61s.42-17.81-5.42-26.32C559.88,324.29,568.78,323.62,565.28,350.61Z"/><path class="cls-11" d="M694,360.57s3.31-26.64,10.37-36.27C704.39,324.3,694.59,327.37,694,360.57Z"/><path class="cls-14" d="M677.93,438.68c1.94-.49,27.74,4.62,34.07,3.89s3.78-6.29,2.19-7.78-22.63-4.87-27-5.85-31.89,0-37.24,0c-4.92,0-19.88,4.93-22.3,5.73-.49,4.16-2.1,22,5.48,31.13,7.57,4.65,24.43,3.65,30.69,3.57,6.57-.1,9.68,1,16.43,2.11s8.12-.29,8.21-2-4.19-4.21-11.13-5.4-8.76-3-9.13-3.25,4.14-1.09,6.69-.6,10.59,2.07,15.34,4,11.19-1.22,10.71-3.54-6.82-5-8-5.11-8.52-2.79-9.5-2.93-10.58-1.58-10.46-2,7.3-.86,8.65-.73,14.23,2.06,15.44,2.19,4.63,3.4,10.23,3.53,5.35-5.12,4.26-5.24-3.9-3.4-5.85-4.14a108.51,108.51,0,0,0-16.43-4.5C681.94,440.37,676,439.15,677.93,438.68Z"/><polygon class="cls-11" points="770.76 488.86 540.07 488.86 535.91 349.37 773.76 349.37 770.76 488.86"/><polygon class="cls-11" points="771.07 474.42 539.64 474.42 540.07 488.86 770.76 488.86 771.07 474.42"/></g><g id="v"><path d="M989.09,488.74H504.17a5.31,5.31,0,0,1-5.3-5.3h0a5.3,5.3,0,0,1,5.3-5.3H989.09a5.29,5.29,0,0,1,5.3,5.29h0a5.3,5.3,0,0,1-5.3,5.3Z"/><path class="cls-8" d="M626.68,478.15v10.6H504.17a5.3,5.3,0,1,1,0-10.6H626.68Z"/><path class="cls-8" d="M641.92,483.39a15.24,15.24,0,1,1-15.24-15.24h0A15.24,15.24,0,0,1,641.92,483.39Z"/><circle class="cls-15" cx="626.68" cy="483.39" r="6.03"/></g><path class="cls-9" d="M265.91,794.15,258,844.06a37.28,37.28,0,0,0,40.19,0l12.61-49.91"/><path class="cls-9" d="M176.8,794.15l-7.9,49.91a37.29,37.29,0,0,0,40.2,0l8.41-49.89"/><path class="cls-15" d="M250.52,859.42c1.31-8.94,7.82-17.38,7.82-17.38a101.47,101.47,0,0,0,21,2s4.43-5.62,5.81-6.08S298.3,837,300,837s7,7.63,7,7.63h0c12.24,2.35,34.22,7.11,42.36,12.29,16.82,10.7,10.66,24.86,9.41,24.86H251.07C251.07,879.8,249.16,868.34,250.52,859.42Z"/><path class="cls-15" d="M381.93,303.48a9.51,9.51,0,0,1-9.38-8.29l-3.19-25.43a9.48,9.48,0,0,1,8.21-10.6h0l119.81-15c.4,0,.8-.07,1.2-.07a9.46,9.46,0,0,1,9.37,8.29l3.2,25.43a9.48,9.48,0,0,1-8.22,10.57l-119.81,15A11.69,11.69,0,0,1,381.93,303.48Z"/><path d="M498.58,244.94h0a8.61,8.61,0,0,1,8.51,7.52l3.19,25.43a8.59,8.59,0,0,1-7.46,9.6L383,302.49a6.39,6.39,0,0,1-1.08.07,8.62,8.62,0,0,1-8.52-7.53l-3.19-25.42a8.62,8.62,0,0,1,7.46-9.6l119.81-15,1.09-.06m0-1.74a11.69,11.69,0,0,0-1.31.09l-119.81,15a10.33,10.33,0,0,0-9,11.5v0l3.19,25.43a10.35,10.35,0,0,0,10.24,9.05,9.36,9.36,0,0,0,1.3-.09l119.81-15a10.33,10.33,0,0,0,9-11.5v0l-3.2-25.42a10.32,10.32,0,0,0-10.23-9Z"/><rect class="cls-16" x="379.91" y="267.43" width="24.6" height="24.6" rx="3.78" transform="translate(-31.81 51.07) rotate(-7.16)"/><path class="cls-16" d="M493.59,258.71,411,269.08c-.67.09-1.32-.77-1.46-1.89v-.11c-.14-1.13.28-2.1,1-2.2l82.61-10.37c.66-.08,1.31.78,1.46,1.89v.11C494.68,257.64,494.28,258.62,493.59,258.71Z"/><path class="cls-16" d="M446.48,274.77l-34.2,4.3c-.66.08-1.32-.76-1.46-1.89v-.11c-.15-1.13.28-2.11.94-2.2L446,270.58c.66-.09,1.32.77,1.46,1.9v.1C447.57,273.7,447.15,274.69,446.48,274.77Z"/><path class="cls-16" d="M494.85,268.7l-43.46,5.45c-.66.1-1.32-.76-1.46-1.89v-.11c-.14-1.13.28-2.1,1-2.19l43.35-5.46c.66-.08,1.32.77,1.46,1.89v.12C495.94,267.63,495.51,268.62,494.85,268.7Z"/><path class="cls-16" d="M458.15,283.45l-44.66,5.61c-.66.08-1.31-.76-1.46-1.89v-.11c-.14-1.13.28-2.11,1-2.19l44.65-5.61c.67-.08,1.32.76,1.46,1.89v.11C459.28,282.39,458.81,283.37,458.15,283.45Z"/><path class="cls-9" d="M364.28,347.79,385.48,376c5.2-15,14.2-40.78,19.49-56,0,0,.32-7.32.32-16.65,0-4.91,3.08-11,8.92-15.94,2.27-2.41,7.44-4.48,7.44.84,0,1.73-1.89,4.75-2.62,6.14A25.11,25.11,0,0,0,416.9,300l24.59-3.08s-1.86,9.31-3.27,11.36c-2.25,5.78-15.32,16.36-15.34,16.39-1.44,7.54-2.61,65-13.38,98.44-1.94,3.87-6.36,7.08-16.06,6C371.76,426.71,339,373.43,339,373.43Z"/><path class="cls-2" d="M381.45,368.7s-12.17,19.45-32.07,30.94L318.72,370l-21.66-74.11s27.27,2.47,35.47,10.9C340.09,314.58,367.38,348,381.45,368.7Z"/><polygon class="cls-17" points="343.24 344.43 357.67 369.86 338.97 366.26 343.24 344.43"/><path class="cls-11" d="M230.22,475.44,185.59,663.09,163.81,814.77s33.4,2.8,53.7,4.19l20-101,3.47-50.68S262.5,614,278.32,574.42l5.65-1.58,1.61,94.31-13.76,41.91L259.58,823.15s38.92,3.93,53.23,4.84c0,0,22.37-124.9,30.17-157.85,3.53-15,6.62-101.65,7.5-116.66C353.56,500.57,346,478,346,478Z"/><path d="M222.9,506.31c60.76,13.09,126.42-10.91,126.42-10.91C347.82,483.5,346,478,346,478l-115.71-2.57Z"/><path class="cls-2" d="M352.85,491.58s-90.28,24.24-128.47-7.23c3.24-15.54,7.37-44.4,6.48-58a46.46,46.46,0,0,0-2.13-12.15c-3.36-9.5-8.29-22.81-12.42-36.62-5-16.66-8.84-34-7.33-46.26,3.11-25.08,46.94-35.65,46.94-35.65l37.53-.34S326.52,298.69,342,322C354,340.15,352.85,491.58,352.85,491.58Z"/><path d="M242.17,373.2l-6.75,53.19h-4.56a46.46,46.46,0,0,0-2.13-12.14c-3.36-9.5-8.29-22.81-12.42-36.62Z"/><path d="M309.39,211.31s6.16,23.38-2.87,27.79c-7.35,3.58-8-6.9-8-6.9l-1.75-11.39"/><path class="cls-9" d="M259.28,258.06c-4.64-8.53-12.2-24.52-10.61-35.72,2.26-16,47.7-32.46,57.23,2.57,0,0,12.79,47-3.87,54.27a29.62,29.62,0,0,1-13.2.93c.73,2.67,1.53,5.42,2.26,7.84,1.29,4.24,2.35,7.44,2.35,7.44s12.12,12-8.14,13.93c-23.29,2.25-29.43-13.61-29.43-13.61,3-10.31,3.65-13.27,6.34-24.6C261.12,269.5,260.28,259.8,259.28,258.06Z"/><path d="M271.48,272.63c3.29,4.79,9.75,12.2,19.65,15.32-.74-2.4-1.55-5.15-2.27-7.82A36.51,36.51,0,0,1,271.48,272.63Z"/><path d="M245.14,211.31c5.61-27,38.71-15.51,50.44-14.55,7.12-6.85,14.59-7.21,18.41-5.24,5.23,2.7,7.1,12.56,6.65,17-2.84,27.62-35.43,26.06-44.31,24.83a12.32,12.32,0,0,1-2,5.77,10.4,10.4,0,0,1-5.6,3.58,6.08,6.08,0,0,0-4.75-3,5.09,5.09,0,0,0-2.23.45,4.91,4.91,0,0,0-2.91,3.9c-.76,3.52,1.33,8.89,3.81,12.14.13,6-.39,11.34-.41,15L240.56,239C237,233.75,228.15,216.15,245.14,211.31Z"/><path d="M347.28,458.64l-64,1.4c-1.12-.34-4.54-3.55-5.22-4.17-1.64-1.48-2.4-3.31-1.7-5.38l30.92-91.34a8.31,8.31,0,0,1,8.09-5.63l66.51,1.86a4.79,4.79,0,0,1,3.45,1.62c.38.43,4.09,3.15,4.3,3.69.37,1-3-.12-3.36,1L355.37,453A8.26,8.26,0,0,1,347.28,458.64Z"/><path class="cls-18" d="M351.58,462.27l-66.51-1.85a4.78,4.78,0,0,1-4.63-4.91,5,5,0,0,1,.25-1.39l30.9-91.31a8.32,8.32,0,0,1,8.09-5.66L386.19,359a4.79,4.79,0,0,1,4.64,4.91,4.62,4.62,0,0,1-.26,1.39l-30.89,91.33A8.29,8.29,0,0,1,351.58,462.27Z"/><path class="cls-9" d="M195.34,355.83l36.44,13.79s-3.86,29.38-9.63,49c20-.6,48.81-1.69,52-2.38,1.18-.68,6-8.71,7.45-10.33s6.33-6.49,7.69-9.32,5-5.67,6.51-1.72c2.57,6.82-2.86,12.93-3.06,14.4,0,.22,6.53-2.58,11-3.84,2.29-1,3.52-1.55,6.1-2.64a31.11,31.11,0,0,1,4-1.69c2.77-.62,5-.14,5.65,1.54s-1.28,2.88-4.07,4.51l1.39-.59c1.83-.78,3-1.33,4-1.69s4.42-1,5.06.64-1.24,3.18-4.11,5c1,0,2,.29,2.28,1.1.74,2-2.25,3.83-5.73,6,1.26-.11,2.64,0,3,1,.81,2.13-2.47,5.88-6.57,9.09-3.92,3.07-6.53,4.35-16.88,6.42-8.4,1.69-22.11,2.42-23.08,2.66-33,9.5-58.91,16.2-69.7,18-22.68,3.85-24.54-2.59-26.23-8.79C175,431.37,195.34,355.83,195.34,355.83Z"/><path class="cls-2" d="M207.1,310.6c4.78-8.45,48.82-14.87,48.82-14.87l-11.16,54.9c.2,15.13-9.19,54.61-9.19,54.61-5.33.47-17.08-.05-26.17-1.43-10.89-1.73-26.9-7.45-26.9-7.45S191.8,337.57,207.1,310.6Z"/><path class="cls-15" d="M163.44,844h0s3.28-6,6.47-6.25c2.3-.19,15.36.58,19.29,2,2.51.88,3.15,3.69,4,6.62a85.92,85.92,0,0,0,15.89-2.24s9.15,8,5,37.69H121.33S112.22,844.34,163.44,844Z"/><path class="cls-11" d="M269.28,843.61s-5.48,15.76-18.57,14.53c0,0,1.64-9.9,7.63-16.32A58.07,58.07,0,0,0,269.28,843.61Z"/><path class="cls-11" d="M209.1,844.09s4.86,3.71,5.47,14.13a27.81,27.81,0,0,1-11.43-12.94Q206.16,844.83,209.1,844.09Z"/><polygon points="278.32 574.38 287.32 537.98 302.32 528.97 292.2 538.41 283.96 572.8 278.32 574.38"/><path class="cls-19" d="M221.06,418.51s-12.63-1.55-23.94,5.55"/><path class="cls-19" d="M314.84,407.32s-5.3,3.16-8.23,4.78a46.45,46.45,0,0,1-7.51,2.9"/><path class="cls-19" d="M320.52,411.06s-6.87,4.2-9.8,5.8a75.67,75.67,0,0,1-9.8,3.72"/><path class="cls-19" d="M318,417.83a78,78,0,0,1-8.07,5.67,35.28,35.28,0,0,1-7.83,2.66"/><path class="cls-11" d="M1221.16,679l12-62h-60.27l22.8-71.56h-66.77L1106.12,617h-57.64l22.8-71.56h-66.77L981.71,617H915.16l-12.49,62H962l-22,69.17H872.45l-12.49,62h60.27l-22.8,71.58h66.76L987,810.15h57.64l-22.8,71.58h66.77l22.8-71.58h67l12-62h-59.3l22-69.17Zm-156.81,69.17h-57.64l22-69.17h57.64Z"/><path class="cls-20" d="M954.89,541.24s24.61,3.28,38.62,1.69c16.22-1.84,1.17-17.28,1.17-17.28l-38.06,9.17Z"/><polyline class="cls-9" points="885.01 686.24 891.78 730.6 925.22 712.74 922.74 674.26"/><path d="M935.88,718.09c-2.67-2.58-7.93-5.39-10.67-5.35l-19.6,10.45-3.87-2.5-12.48,1.93L885,740.51s-16.41,9-22.71,19.3c-9.46,15.48,2,26.83,2,26.83L950,744.24S947.35,729.15,935.88,718.09Z"/><path class="cls-15" d="M885,740.51s7.61-2.47,20-2.33l.54-15a21,21,0,0,0-3.87-2.5c-3-.93-11.52.26-13.84,2.4C884.53,726.21,885,740.51,885,740.51Z"/><path class="cls-21" d="M1034.17,563.48l-4.4,51.83-35.15,10.42s-68.06-27.51-77.07-32c1.87,14.25,8.15,105.71,8.15,105.71-15.72,10.48-52.16,5.61-52.16,5.61s-19.47-101.88-25.41-138.52c-3.25-20.12,10.72-42.19,55.21-36.53,15.82,2,56.69,12.57,71.56,16.14C1010.46,554.64,1034.17,563.48,1034.17,563.48Z"/><path d="M938.22,602.64l89.07,13.41-32.66,9.69S961.28,612.26,938.22,602.64Z"/><polyline class="cls-9" points="994.62 799.92 1005.06 843.72 1042.93 842.53 1033.34 795.5"/><path d="M1050.13,852.07c-1.25-3.5-4.71-8.35-7.19-9.53l-22.21.67-2.36-4-12-3.79-11.72,14.16s-18.71.79-28.92,7.22c-15.34,9.68-10.13,24.93-10.13,24.93h95.61S1055.49,867.09,1050.13,852.07Z"/><path class="cls-15" d="M994.62,849.61s7.92,1.16,19,6.79l7.13-13.19a21.13,21.13,0,0,0-2.36-4c-2.29-2.16-10.43-4.87-13.46-4C1000.5,836.57,994.62,849.61,994.62,849.61Z"/><path class="cls-21" d="M1100.72,556s-47.18,13.32-70.61.78c0,0-72.54,88.77-75.38,122.24-.73,8.61,30.74,140.33,30.74,140.33s42.26-6.51,52.74-10.57c0,0-10.42-90-19.46-118.65,23.37-26.3,41.62-43.46,62.12-68.28,3.4-4.11,23.75-12.66,23.75-12.66S1112.28,593.08,1100.72,556Z"/><path d="M1106.84,598.55a102.17,102.17,0,0,1-21.27.3c-23-1.78-51.41-18.15-51.41-18.15V574l-4.05-17.23c23.43,12.55,70.6-.79,70.6-.79C1107,576.07,1107.58,590,1106.84,598.55Z"/><path class="cls-22" d="M991.41,471.81c-2.51-.6-4.91-1.26-7.2-1.94-23.57-6.93-30.1-15.19-30.1-15.19,14.79-41.5,20.85-58.22,27.77-65.85,5.12-5.65,34.49-11.23,40.75-11.94,1.59,10.15-34.91,50.54-35.8,51Z"/><polygon class="cls-23" points="986.27 430.71 980.85 455.81 993.96 452.54 986.27 430.71"/><path class="cls-22" d="M1110.82,566.63c.39,1.82-5.46,12.71-24.08,19.81,0,0-37.2,10.5-70.46-17.12a169.94,169.94,0,0,0-33.9-21.42c-.76-.51-.62-1.83.27-3.09.71-1,4.78-7,4.87-7.51,6.46-34.79,1-38.24.64-64.85v-2c-.7-41-4.85-61.55-2.93-74.23,9.52-10.62,35.76-19,37.44-19.33.07,0,27.62-.21,33.63,0,13.75,3.54,38.09,10.85,50.2,31.48-.66,16.48.41,36.51-1.58,62.18C1104.53,474.43,1104.22,536,1110.82,566.63Z"/><path d="M993.28,309.77s-5.39,18.78,6.33,20.85l2.62-15.82"/><path class="cls-9" d="M1056.28,376.73c-2.75-.41-3.38-30.29-3.38-30.29h-.06a10.36,10.36,0,0,0,2.15-4.21c2.33-9.17,5.62-26.1,1.43-36.28-6-14.52-57.52-28.28-58.09,7.06,0,0-6.19,47.12,14.6,54.86a41.53,41.53,0,0,0,11.23-.93l-1.51,9.75h0c-1.72,2.17-9,18.61,7.16,20.54C1054.85,400.23,1060.42,378.69,1056.28,376.73Z"/><path d="M1043.35,356.43c-.39,1-6.92,16.69-20.55,19.19l1.36-8.66A36.08,36.08,0,0,0,1043.35,356.43Z"/><path d="M1056.06,356.85l-2.66,1.54c-.7-7.71-.47-14.74-.93-20.14h0c1.51-5.86.25-13.46-4.77-13.9-8.11-.72-8.38,11-8.38,11-7.1-1.27-8.42-13.3-8.93-17.89-4.58,1.55-42.45,7.53-40.6-14.07a27.47,27.47,0,0,1-2.25-6.71c-4.46-26.8,24.66-16.68,24.66-16.68s4.83-11.21,19.76-5.88a34.52,34.52,0,0,1,15.77,11.48s4.16-3.39,8,1.79c2.48,3.38.88,10.56.88,10.56C1081.38,302.44,1056.36,355.15,1056.06,356.85Z"/><polygon points="1067.19 439.88 1077.88 484.79 1099.81 478.51 1067.19 439.88"/><path class="cls-9" d="M1116.66,424.56l-40.8,18.89s13.94,27.84,23.18,47.28c-8.92,2.18-92.71,22.85-92.71,22.85,1,6.89,2.85,18.76,2.85,18.76,24-1.24,61-4.08,90.08-6,12-.79,22.22-2,27.64-3.82,8.53-2.93,17.51-9,17.91-18C1145.38,491.45,1116.66,424.56,1116.66,424.56Z"/><path d="M1049.16,537.3H998.6v-5h50.56a2.46,2.46,0,0,1,2.47,2.46h0a2.46,2.46,0,0,1-2.42,2.52Z"/><path d="M1021.8,537.3H901a3.38,3.38,0,0,1-3.25-2.47L871.8,441.55a3.25,3.25,0,0,1,2.27-4,2.78,2.78,0,0,1,.86-.11H991.59a6.34,6.34,0,0,1,6.11,4.65L1023.52,535a1.77,1.77,0,0,1-1.23,2.19A2,2,0,0,1,1021.8,537.3Z"/><path class="cls-11" d="M1017.22,537.3H896.39a3.39,3.39,0,0,1-3.26-2.47l-25.91-93.28a3.25,3.25,0,0,1,2.27-4,3.1,3.1,0,0,1,.85-.11H987a6.32,6.32,0,0,1,6.12,4.65L1018.94,535a1.77,1.77,0,0,1-1.23,2.19A2,2,0,0,1,1017.22,537.3Z"/><path class="cls-24" d="M910.56,537.3s2.09,4.68,11.58,5.64l-.66-5.64Z"/><path class="cls-25" d="M912.78,521.44c.2-.89,2.32-1.86,4-1.29a32.12,32.12,0,0,1-1.28-4c.17-2.46,2.59-2.16,4-1.39,1.57.88,3.41,5,3.91,5.42a17.31,17.31,0,0,1-1.22-3c.34-1.47,3.59-2.69,5.45-1,1,.87,3.77,5.58,4.47,6.83a7.34,7.34,0,0,1-.28-1.47c.34-1.46,3.11-2,5-.3,2.71,2.47,6.6,11.53,6.6,11.53h0c1.79,4,3.44,4.54,4,4.54h10A8.09,8.09,0,0,1,952,543c-4.63,1.54-11.9,2.53-20.9,2.28-4.45-.11-9.81-1.68-12.54-5.82-1-1.43-2.86-8.61-3.55-11.27h0C914.46,526.83,912.74,521.59,912.78,521.44Z"/><path class="cls-22" d="M1062.15,427.36c13,32.83,18.6,44,18.6,44,29.63-9.07,52.24-18.24,52.24-18.24-9.21-25.35-23.2-56.81-31.18-63.23-8.75-7.06-42.44-12.22-42.44-12.22"/><path class="cls-19" d="M1100.63,490.15s18.91-5.16,30.29,4.59"/><rect x="1093.54" y="201.19" width="106.17" height="8.55"/><rect x="100.25" y="275.54" width="78.19" height="8.55"/><rect x="88.5" y="752.69" width="123.5" height="8.55"/><rect x="648.54" y="565.51" width="101.34" height="8.54"/><rect x="758.03" y="565.51" width="31.8" height="8.54"/><rect x="88.5" y="881.76" width="1164.29" height="5.32"/><rect x="793.32" y="900.84" width="367" height="5.32"/><rect x="102.61" y="900.84" width="274.07" height="5.32"/><path class="cls-2" d="M819.76,690.51c-26.46-12.67-67.56,67.35-67.56,67.35s46.87-97.16,21.3-107.54-54.2,109.45-54.2,109.45,29.73-131,8.7-136.33-29.72,136.33-29.72,136.33-8-142.56-34.8-131.26,12,131.26,12,131.26S627.93,630.25,612,650.33c-9.93,12.5,19.53,69.67,36.15,102.74-16.41-15.69-43.62-39.64-50.29-29.56-10.59,16,48.34,54.11,48.34,54.11l24.86-.31h0l97.57-.5S846.28,703.15,819.76,690.51Z"/><path class="cls-11" d="M722.49,652.47Q721,667.2,719,681.85c-1.27,9.77-2.68,19.52-4.12,29.27s-3,19.48-4.65,29.2-3.39,19.42-5.32,29.1q1.5-14.7,3.46-29.38c1.27-9.77,2.68-19.52,4.13-29.27s3-19.48,4.65-29.2S720.57,662.15,722.49,652.47Z"/><path class="cls-11" d="M725.42,769.43c2-7,4.32-13.93,6.67-20.82s4.81-13.74,7.3-20.57,5.11-13.65,7.81-20.41,5.44-13.51,8.43-20.16c-2,7-4.32,13.92-6.67,20.82s-4.81,13.75-7.3,20.57-5.11,13.63-7.81,20.4S728.4,762.76,725.42,769.43Z"/><path class="cls-11" d="M751.74,770.15c1.54-2.06,3-4.17,4.5-6.26s3-4.15,4.56-6.19c3.06-4.12,6.22-8.16,9.39-12.2s6.44-8,9.77-11.89,6.71-7.78,10.28-11.5c-2.78,4.34-5.76,8.53-8.8,12.67S775.25,743,772.08,747s-6.46,8-9.82,11.87c-1.67,2-3.38,3.87-5.11,5.78A75.8,75.8,0,0,1,751.74,770.15Z"/><path class="cls-11" d="M666,644.73q3.3,15.63,6.11,31.32c1.91,10.45,3.69,20.93,5.44,31.42s3.38,21,4.92,31.51,3,21.06,4.25,31.62q-3.28-15.63-6.11-31.31c-1.91-10.46-3.69-20.94-5.44-31.43s-3.38-21-4.91-31.51S667.22,655.31,666,644.73Z"/><path class="cls-11" d="M637.68,697.37c3.15,5.89,6.07,11.89,8.92,17.92s5.59,12.08,8.3,18.18,5.31,12.22,7.82,18.39,5,12.37,7.19,18.67c-3.14-5.89-6.07-11.88-8.92-17.91s-5.59-12.09-8.3-18.18-5.3-12.22-7.81-18.39S639.91,703.68,637.68,697.37Z"/><path class="cls-11" d="M618.76,736c3.27,2.55,6.37,5.28,9.42,8.06s6,5.65,9,8.54,5.79,5.87,8.57,8.92,5.53,6.13,8.1,9.39c-3.28-2.55-6.38-5.28-9.43-8.06s-6-5.65-8.94-8.54-5.79-5.87-8.58-8.92S621.28,739.21,618.76,736Z"/><polygon class="cls-22" points="652.91 791.09 667.31 885.34 697.12 885.34 717.79 885.34 747.6 885.34 761.99 791.09 652.91 791.09"/><rect class="cls-22" x="635.79" y="776.71" width="143.33" height="18.15" rx="8.32"/></g></g></g></svg>